<?xml version="1.0" standalone="no"?>
<!DOCTYPE svg PUBLIC "-//W3C//DTD SVG 20010904//EN"
 "http://www.w3.org/TR/2001/REC-SVG-20010904/DTD/svg10.dtd">
<svg version="1.0" xmlns="http://www.w3.org/2000/svg"
 width="1539.000000pt" height="648.000000pt" viewBox="0 0 1539.000000 648.000000"
 preserveAspectRatio="xMidYMid meet">

<g transform="translate(0.000000,648.000000) scale(0.100000,-0.100000)"
fill="#2a2f74" stroke="none">
<path d="M3496 5109 c-407 -53 -811 -232 -1103 -488 -273 -241 -491 -607 -588
-990 -103 -408 -56 -826 139 -1226 110 -225 227 -385 412 -566 517 -503 1225
-678 1918 -474 226 66 390 142 571 266 420 285 702 712 813 1229 24 116 26
143 26 360 0 266 -11 343 -84 561 -231 696 -883 1226 -1626 1324 -124 16 -366
18 -478 4z m-331 -1471 c15 -12 34 -36 41 -54 21 -51 17 -184 -10 -309 -14
-60 -23 -111 -21 -113 2 -2 45 32 96 76 184 161 308 192 399 99 17 -18 51 -66
75 -107 88 -151 141 -177 253 -125 39 18 87 60 185 159 139 141 177 168 240
170 30 0 44 -5 62 -26 38 -44 39 -86 6 -216 -17 -65 -33 -144 -37 -176 -7 -57
-7 -58 14 -47 52 28 172 127 270 223 324 317 410 371 479 302 24 -24 25 -30
20 -90 -4 -42 -37 -154 -92 -318 -47 -139 -85 -256 -85 -260 0 -3 36 24 79 62
93 81 189 148 197 139 13 -13 16 -96 5 -130 -17 -51 -85 -122 -211 -222 -132
-105 -191 -178 -352 -430 -249 -393 -368 -516 -557 -575 -35 -11 -81 -20 -102
-20 -38 0 -39 1 -33 28 37 169 115 294 339 547 217 245 284 350 349 538 42
122 86 298 73 290 -55 -32 -116 -82 -236 -196 -156 -150 -230 -197 -304 -197
-95 0 -141 80 -142 242 0 54 -2 98 -5 98 -3 0 -54 -34 -115 -75 -210 -145
-274 -140 -459 33 -171 160 -279 132 -446 -118 -95 -141 -175 -204 -253 -198
-32 2 -44 8 -55 28 -19 37 -9 132 33 295 36 140 58 285 44 285 -4 0 -43 -27
-86 -59 -83 -63 -118 -98 -309 -312 -151 -168 -225 -221 -287 -205 -64 16 -67
118 -8 291 22 66 44 139 50 162 8 40 8 42 -11 32 -31 -17 -154 -136 -195 -190
-28 -38 -43 -49 -64 -49 -25 0 -28 4 -34 43 -12 81 26 186 103 284 55 69 301
296 357 329 67 39 119 38 155 -3 45 -50 49 -130 14 -302 -7 -31 -6 -33 13 -22
12 6 104 90 205 188 229 221 286 254 353 201z"/>
<path d="M7780 4264 c-36 -8 -89 -19 -117 -25 l-53 -10 0 -180 0 -179 -125 0
-125 0 0 -125 0 -125 126 0 126 0 -7 -352 c-11 -582 20 -783 139 -903 100 -99
253 -123 524 -79 l32 5 0 136 0 135 -22 -6 c-13 -4 -65 -10 -115 -13 -111 -7
-165 9 -212 63 -58 66 -61 92 -61 576 l0 438 220 0 220 0 0 125 0 125 -220 0
-220 0 0 205 0 205 -22 -1 c-13 -1 -52 -7 -88 -15z"/>
<path d="M6315 3901 c-136 -22 -235 -69 -316 -150 -172 -173 -182 -431 -23
-601 90 -97 199 -141 475 -194 211 -41 279 -66 337 -120 36 -35 45 -50 49 -87
16 -145 -191 -269 -382 -229 -97 20 -145 51 -240 154 -111 121 -140 136 -263
136 l-92 0 0 -260 0 -260 110 0 110 0 0 65 c0 36 2 65 5 65 3 0 26 -16 52 -37
112 -85 247 -126 418 -127 262 0 448 94 534 269 39 81 52 141 52 235 -1 191
-103 322 -300 384 -42 13 -145 36 -229 50 -287 50 -414 109 -443 205 -26 87
45 194 150 225 115 34 289 11 370 -48 19 -14 62 -63 96 -108 69 -93 137 -140
205 -141 108 -2 150 108 150 396 l0 147 -125 0 -125 0 0 -54 0 -54 -97 49
c-54 27 -132 58 -174 68 -89 23 -234 33 -304 22z"/>
<path d="M12345 3904 c-119 -20 -240 -66 -336 -130 -79 -52 -191 -169 -238
-247 -138 -233 -146 -634 -19 -897 32 -67 57 -101 117 -160 89 -87 159 -131
273 -171 224 -77 496 -47 694 76 134 84 266 253 290 373 6 29 4 31 -31 38 -57
10 -188 -2 -226 -21 -19 -10 -71 -53 -115 -96 -106 -103 -164 -130 -290 -137
-209 -11 -372 90 -473 294 -23 45 -41 87 -41 93 0 8 174 11 610 11 l610 0 0
164 c0 249 -28 364 -124 505 -90 132 -252 245 -411 287 -61 16 -235 26 -290
18z m286 -316 c140 -66 227 -185 254 -345 l7 -43 -475 0 -475 0 10 48 c26 123
132 268 238 322 94 49 148 60 261 57 97 -3 112 -6 180 -39z"/>
<path d="M9156 3883 c-291 -62 -501 -289 -571 -618 -25 -117 -23 -295 4 -410
26 -108 93 -249 156 -327 54 -68 154 -145 243 -188 184 -90 442 -103 650 -34
290 97 474 395 473 769 0 435 -218 732 -594 809 -95 20 -268 20 -361 -1z m299
-248 c87 -23 149 -61 217 -134 106 -113 161 -262 162 -436 1 -113 -13 -182
-55 -271 -69 -147 -199 -240 -370 -264 -208 -30 -394 78 -488 282 -53 114 -66
174 -65 303 0 169 41 282 141 386 116 122 298 175 458 134z"/>
<path d="M11205 3865 c-73 -16 -153 -51 -229 -99 -31 -20 -57 -31 -57 -26 -1
6 -3 33 -4 60 -1 28 -3 55 -4 60 -1 6 -90 10 -246 10 l-245 0 0 -125 0 -125
125 0 125 0 -2 -542 -3 -543 -122 -3 -123 -3 0 -119 0 -120 385 0 385 0 0 120
0 120 -119 0 c-66 0 -122 4 -125 8 -13 21 -18 521 -6 612 35 279 149 426 358
462 56 9 86 9 161 -3 l91 -15 0 137 0 136 -46 7 c-75 10 -234 5 -299 -9z"/>
</g>
</svg>
